# xmcd
#
# Track frame offsets: 
#        150
#        23179
#        45965
#        72340
#        85903
#        121582
#        149204
#        171584
#        208840
#
# Disc length: 3217 seconds
#
# Revision: 0
# Processed by: cddbd v1.5.2PL0 Copyright (c) Steve Scherf et al.
# Submitted via: ExactAudioCopy v0.99pb5
#
DISCID=820c8f09
DTITLE=Acorn Project - We'll Be Fine
DYEAR=2008
DGENRE=Rock
TTITLE0=Funny Pair Of Pants
TTITLE1=Reboot
TTITLE2=Hello Neuman
TTITLE3=Gringo Starr
TTITLE4=Crystal Myth
TTITLE5=Wellness
TTITLE6=Stomp
TTITLE7=Werner, Turner
TTITLE8=McGuffin
EXTD=
EXTT0=
EXTT1=
EXTT2=
EXTT3=
EXTT4=
EXTT5=
EXTT6=
EXTT7=
EXTT8=
PLAYORDER=
